<?xml version="1.0" encoding="UTF-8"?>
<svg width="24" height="24" viewBox="0 0 24 24" xmlns="http://www.w3.org/2000/svg">
  <defs>
    <radialGradient id="sg-glow" cx="50%" cy="50%" r="50%">
      <stop offset="0%" stop-color="#06b6d4" stop-opacity="0.4"/>
      <stop offset="100%" stop-color="#06b6d4" stop-opacity="0"/>
    </radialGradient>
  </defs>
  <circle cx="12" cy="12" r="10" fill="url(#sg-glow)"/>
  <rect x="2.5" y="2.5" width="5.2" height="5.2" rx="1.2" fill="#a78bfa" opacity="0.6"/>
  <rect x="9.4" y="2.5" width="5.2" height="5.2" rx="1.2" fill="#818cf8" opacity="0.75"/>
  <rect x="16.3" y="2.5" width="5.2" height="5.2" rx="1.2" fill="#a78bfa" opacity="0.6"/>
  <rect x="2.5" y="9.4" width="5.2" height="5.2" rx="1.2" fill="#818cf8" opacity="0.75"/>
  <rect x="9.4" y="9.4" width="5.2" height="5.2" rx="1.4" fill="#22d3ee"/>
  <rect x="9.4" y="9.4" width="5.2" height="5.2" rx="1.4" fill="#fff" opacity="0.15"/>
  <rect x="9.4" y="9.4" width="5.2" height="2.8" rx="1.4" fill="#fff" opacity="0.1"/>
  <rect x="16.3" y="9.4" width="5.2" height="5.2" rx="1.2" fill="#818cf8" opacity="0.75"/>
  <rect x="2.5" y="16.3" width="5.2" height="5.2" rx="1.2" fill="#a78bfa" opacity="0.6"/>
  <rect x="9.4" y="16.3" width="5.2" height="5.2" rx="1.2" fill="#818cf8" opacity="0.75"/>
  <rect x="16.3" y="16.3" width="5.2" height="5.2" rx="1.2" fill="#a78bfa" opacity="0.6"/>
</svg>
